<svg xmlns="http://www.w3.org/2000/svg">
    <symbol viewBox="0 0 24 24" id="vkontakte">
      <g clip-path="url(#a)">
      <path fill-rule="evenodd" clip-rule="evenodd" d="M23.45 5.95c.17-.55 0-.95-.8-.95h-2.62c-.67 0-.98.35-1.14.73 0 0-1.34 3.2-3.23 5.27-.61.6-.89.8-1.22.8-.17 0-.42-.2-.42-.74V5.95c0-.66-.18-.95-.74-.95H9.15c-.42 0-.67.3-.67.6 0 .61.95.76 1.05 2.5v3.8c0 .84-.16.99-.5.99-.88 0-3.05-3.21-4.33-6.89-.25-.71-.5-1-1.17-1H.9c-.75 0-.9.35-.9.73 0 .68.89 4.07 4.14 8.55C6.32 17.34 9.38 19 12.15 19c1.67 0 1.88-.37 1.88-1v-2.32c0-.73.16-.88.69-.88.38 0 1.05.2 2.61 1.67C19.11 18.22 19.4 19 20.41 19h2.62c.75 0 1.13-.37.91-1.1-.24-.72-1.09-1.77-2.21-3.02-.62-.7-1.54-1.47-1.81-1.86-.4-.49-.28-.7 0-1.14 0 0 3.2-4.43 3.53-5.93Z" fill="#fff"/>
      </g><defs><clipPath id="a">
      <path fill="#fff" d="M0 0h24v24H0z"/></clipPath></defs>
    </symbol>
    <symbol viewBox="0 0 24 24" id="telegram">
      <path d="m22.44 4.62-3.17 14.95c-.24 1.05-.86 1.31-1.75.82l-4.83-3.56-2.33 2.24c-.25.26-.47.47-.97.47l.35-4.91 8.95-8.09c.39-.35-.09-.54-.6-.2L7.01 13.32l-4.76-1.49c-1.04-.32-1.05-1.03.22-1.53L21.1 3.11c.87-.32 1.62.2 1.34 1.51Z" fill="#fff"/>
    </symbol>
    <symbol viewBox="0 0 24 24" id="youtube">
      <path d="M19.18 5H4.81C3.31 5 2 6.3 2 7.8v8.3C2 17.7 3.3 19 4.81 19h14.37A2.8 2.8 0 0 0 22 16.2V7.8c.1-1.5-1.2-2.8-2.8-2.8ZM9.03 15.4V8.6l6.84 3.4-6.84 3.4Z" fill="#fff"/>
    </symbol>
    <symbol viewBox="0 0 60 60" id="htmlcademy">
      <path d="M30.2 5h-.2l-19.7 2.1v36.2l19.7 11.7 19.7-11.7v-36.2l-19.5-2.1zm17 36.8l-17.2 10.2-17.2-10.2v-14.8l17.1 10.2v1.8l-11.7-7v1.8l11.8 7.1v1.9l-11.8-7v1.8l11.8 7 11.9-7.1v-7.6l5.3-3.2v15.1zm-.1-17l-4.7 2.8-2.2 1.3-10.3-6.1v1.8l8.8 5.3h-.1l-.2.1-1.3.7-7.3-4.3v1.8l5.8 3.4-1.4.9-4.3-2.6v1.8l2.9 1.7-2.9 1.7-17-10.1 17-10.2 17.2 10zm.1-1.8l-17.3-10.2-17.1 10.2v-13.6l17.2-1.8 17.2 1.8v13.6z"/>
    </symbol>
  </svg>
